<?xml version="1.0" encoding="UTF-8"?>
<svg version="1.1" xmlns="http://www.w3.org/2000/svg" width="320" height="320">
    <path d="M0 0 C105.6 0 211.2 0 320 0 C320 105.6 320 211.2 320 320 C214.4 320 108.8 320 0 320 C0 214.4 0 108.8 0 0 Z "
          fill="#030303" transform="translate(0,0)"/>
    <path d="M0 0 C0.76054687 0.62519531 1.52109375 1.25039063 2.3046875 1.89453125 C8.32737888 7.01069296 13.16123592 12.77272102 18 19 C19.09634766 20.33804688 19.09634766 20.33804688 20.21484375 21.703125 C42.72519527 50.02898034 51.01524732 87.04586335 47.60546875 122.640625 C44.17839653 151.28159117 31.19629658 177.02417286 13 199 C12.49082031 199.64453125 11.98164063 200.2890625 11.45703125 200.953125 C10.35150246 202.34070952 9.18298968 203.67783506 8 205 C7.34 205 6.68 205 6 205 C6 204.34 6 203.68 6 203 C-0.93 203 -7.86 203 -15 203 C-14.98881386 199.58769043 -14.98881386 199.58769043 -14.97740173 196.10644531 C-14.91145398 174.68212869 -14.89523924 153.2581869 -14.92484188 131.83378601 C-14.93886547 120.81886001 -14.93612069 109.80441629 -14.89379883 98.78955078 C-14.85695028 89.18809237 -14.85166763 79.58722209 -14.88417059 69.98573875 C-14.90027974 64.90232665 -14.90066301 59.82001759 -14.86323357 54.73669434 C-14.82848177 49.94925069 -14.83602261 45.16371365 -14.87562943 40.37632561 C-14.88275718 38.62199178 -14.87459593 36.86751691 -14.84977531 35.11334419 C-14.48799998 25.68418619 -14.48799998 25.68418619 -17.97107124 17.22241211 C-20.21915009 15.19663438 -22.43081855 13.58721859 -25 12 C-26.00289062 11.16210938 -27.00578125 10.32421875 -28.0390625 9.4609375 C-29.8347106 8.0124842 -31.63308675 6.56740895 -33.43359375 5.125 C-36.15380823 2.87264585 -38.65718733 0.47206533 -41.07421875 -2.1015625 C-46.28221391 -4.53125598 -53.41116275 -1.34747221 -58.48225403 0.4744873 C-59.86582344 0.98598328 -59.86582344 0.98598328 -61.27734375 1.5078125 C-62.26598923 1.86572876 -63.2546347 2.22364502 -64.27323914 2.59240723 C-67.49762112 3.76196933 -70.71753565 4.94333603 -73.9375 6.125 C-76.16624501 6.93609585 -78.39525169 7.74647305 -80.62451172 8.55615234 C-86.30953745 10.62336464 -91.99083292 12.70061906 -97.67095947 14.78125 C-101.92137298 16.3373114 -106.17350821 17.88863118 -110.42573547 19.43972778 C-120.95507765 23.28067528 -131.47960297 27.13462315 -142 31 C-142.33 33.64 -142.66 36.28 -143 39 C-108.40409711 28.03461482 -108.40409711 28.03461482 -73.9440918 16.65258789 C-57.22951244 11 -57.22951244 11 -53 11 C-53 78.65 -53 146.3 -53 216 C-37.49 216 -21.98 216 -6 216 C-11.52347209 221.52347209 -17.30172301 225.1750786 -24 229 C-25.02867187 229.59039062 -26.05734375 230.18078125 -27.1171875 230.7890625 C-60.07586664 248.4368638 -98.47362759 251.96984816 -134.28515625 241.52734375 C-150.84016163 236.28747133 -166.74148425 228.2812138 -180 217 C-180.80324392 216.42123895 -181.60648785 215.84247789 -182.43407249 215.24617863 C-189.44132104 209.78668082 -189.44132104 209.78668082 -190.91095352 205.08672905 C-191.2278852 201.67137033 -191.23861633 198.38151683 -191.13525391 194.95288086 C-191.13671417 193.67384888 -191.13817444 192.39481689 -191.13967896 191.07702637 C-191.14253037 187.59483107 -191.08405349 184.11613108 -191.01393938 180.63474345 C-190.95111395 176.98743825 -190.94552805 173.34003881 -190.9336853 169.692276 C-190.90269348 162.79631986 -190.82076025 155.90196288 -190.72019041 149.00670868 C-190.60813128 141.15197904 -190.55336355 133.29717003 -190.50323606 125.4418391 C-190.39891412 109.29362559 -190.22320414 93.14701735 -190 77 C-182.92334307 74.72118881 -175.84639055 72.44329802 -168.76907825 70.16652298 C-165.48140949 69.10884771 -162.19383636 68.05087731 -158.90649414 66.9921875 C-155.11113761 65.76990675 -151.31534323 64.54899062 -147.51953125 63.328125 C-146.36169632 62.95504211 -145.20386139 62.58195923 -144.01094055 62.1975708 C-140.67588792 61.12554944 -137.33866628 60.0607104 -134 59 C-132.8378598 58.62919312 -131.6757196 58.25838623 -130.47836304 57.87634277 C-129.3404129 57.51850708 -128.20246277 57.16067139 -127.0300293 56.79199219 C-126.01506882 56.47139832 -125.00010834 56.15080444 -123.95439148 55.82049561 C-121 55 -121 55 -115 54 C-115 107.46 -115 160.92 -115 216 C-102.13 216 -89.26 216 -76 216 C-76 161.55 -76 107.1 -76 51 C-77.65 50.34 -79.3 49.68 -81 49 C-82.54960262 48.08486202 -84.07685393 47.13103368 -85.58203125 46.14453125 C-86.43216797 45.60505859 -87.28230469 45.06558594 -88.15820312 44.50976562 C-89.92478796 43.38013926 -91.6827345 42.23688627 -93.43164062 41.08007812 C-94.28564453 40.54447266 -95.13964844 40.00886719 -96.01953125 39.45703125 C-96.78370361 38.96178955 -97.54787598 38.46654785 -98.33520508 37.95629883 C-104.84755245 35.61925214 -111.77987093 38.73979098 -117.94921875 41.02734375 C-118.79183762 41.3318898 -119.63445648 41.63643585 -120.50260925 41.95021057 C-122.30210232 42.60154298 -124.10025664 43.25658424 -125.89715576 43.91503906 C-129.67080642 45.29781124 -133.45082751 46.6627328 -137.23071289 48.02835083 C-139.13028239 48.71470633 -141.02953454 49.40194078 -142.9284668 50.09005737 C-152.03820756 53.38794838 -161.18909409 56.55497909 -170.35571289 59.69067383 C-175.61608738 61.49042707 -180.87118339 63.30057328 -186.109375 65.1640625 C-187.04797363 65.49728516 -187.98657227 65.83050781 -188.95361328 66.17382812 C-190.67215854 66.78573201 -192.3893984 67.40132122 -194.10498047 68.02148438 C-197.19281934 69.1194423 -199.69631721 70 -203 70 C-203 110.59 -203 151.18 -203 193 C-223.88675196 172.11324804 -234.3001742 137.23698142 -234.375 108.25 C-233.81547727 67.69594407 -218.93580334 31.56001369 -190 3 C-169.8347634 -15.25174699 -145.76287792 -27.9736386 -119 -33 C-117.96359375 -33.20496094 -116.9271875 -33.40992187 -115.859375 -33.62109375 C-73.92304108 -40.82579567 -32.13843218 -26.99416168 0 0 Z "
          fill="#F0F0F0" transform="translate(253,54)"/>
    <path d="M0 0 C105.6 0 211.2 0 320 0 C320 105.6 320 211.2 320 320 C214.4 320 108.8 320 0 320 C0 214.4 0 108.8 0 0 Z M131 5 C130.17258301 5.18304688 129.34516602 5.36609375 128.49267578 5.5546875 C100.35970399 11.9099832 75.45325646 24.26423385 54.25390625 43.95703125 C52.69229267 45.37249728 51.07619593 46.72924533 49.421875 48.03515625 C45.80206267 50.97187496 42.98431058 54.43627212 40 58 C39.39285156 58.69609375 38.78570312 59.3921875 38.16015625 60.109375 C19.30492469 82.47345333 8.97117105 109.51173816 4 138 C3.80277344 139.06089844 3.60554687 140.12179688 3.40234375 141.21484375 C2.77052851 147.15881433 2.81555215 153.08943614 2.8125 159.0625 C2.80025391 160.29677734 2.78800781 161.53105469 2.77539062 162.80273438 C2.74470201 182.3513841 6.36995395 203.31778609 15 221 C15.28746094 221.60618164 15.57492187 222.21236328 15.87109375 222.83691406 C24.10097464 240.1760096 33.89036694 256.78254514 48 270 C50.49053577 272.48235667 52.97272415 274.97241915 55.4453125 277.47265625 C84.92876027 305.96759193 125.26427462 317.49556586 165.328125 317.14453125 C203.16989109 316.49626701 240.42796521 300.66540194 267.53222656 274.41210938 C269.00095498 272.99908123 270.49425258 271.61633448 271.9921875 270.234375 C298.09691405 245.70160974 315.75984399 206.79610793 317 171 C317.4585413 156.02785371 317.34882652 141.63793165 314 127 C313.83371094 126.23671387 313.66742188 125.47342773 313.49609375 124.68701172 C306.83097617 94.62609715 290.96584505 68.40261825 269 47 C268.51144531 46.45472656 268.02289063 45.90945312 267.51953125 45.34765625 C253.09070267 29.7721658 232.68271236 19.26918354 213 12 C212.0925 11.63261719 211.185 11.26523438 210.25 10.88671875 C204.61335129 8.66127361 198.89705319 7.15659597 193 5.8125 C191.91464966 5.56185791 191.91464966 5.56185791 190.80737305 5.30615234 C172.07475472 1.2364863 149.71400454 0.76440376 131 5 Z "
          fill="#F6F6F6" transform="translate(0,0)"/>
    <path d="M0 0 C0 53.46 0 106.92 0 162 C12.87 162 25.74 162 39 162 C39 162.33 39 162.66 39 163 C26.79 163 14.58 163 2 163 C2 165.97 2 168.94 2 172 C-4.6 172 -11.2 172 -18 172 C-18 169.03 -18 166.06 -18 163 C-24.6 163 -31.2 163 -38 163 C-38 165.97 -38 168.94 -38 172 C-43.84629897 173.31087227 -48.82578421 174.02286398 -54.37109375 171.4140625 C-57.06516289 169.57058181 -59.68298132 167.75984143 -62.09858704 165.5606842 C-64.03263258 163.86822503 -64.03263258 163.86822503 -66.70646667 162.56321716 C-71.39059027 159.54290919 -74.3742817 156.81807694 -75.6174469 151.21917534 C-76.52395487 143.01922332 -76.2981168 134.76744028 -76.11533332 126.53334951 C-76.04615764 122.88875985 -76.04007573 119.24405234 -76.02705383 115.59890747 C-75.99298189 108.70990441 -75.90288375 101.82284157 -75.79220945 94.93468964 C-75.66888271 87.08724032 -75.60868487 79.23969399 -75.55355966 71.39151549 C-75.43884922 55.25987791 -75.24560815 39.13018724 -75 23 C-67.92334307 20.72118881 -60.84639055 18.44329802 -53.76907825 16.16652298 C-50.48140949 15.10884771 -47.19383636 14.05087731 -43.90649414 12.9921875 C-40.11113761 11.76990675 -36.31534323 10.54899062 -32.51953125 9.328125 C-30.78277885 8.76850067 -30.78277885 8.76850067 -29.01094055 8.1975708 C-22.24258877 6.02194766 -15.46085813 3.89701461 -8.66142273 1.82049561 C-2.75632299 0 -2.75632299 0 0 0 Z "
          fill="#F0F0F0" transform="translate(138,108)"/>
    <path d="M0 0 C6.6 0 13.2 0 20 0 C20.495 6.93 20.495 6.93 21 14 C6.15 19.445 6.15 19.445 -9 25 C-9.33 27.64 -9.66 30.28 -10 33 C24.59590289 22.03461482 24.59590289 22.03461482 59.0559082 10.65258789 C75.77048756 5 75.77048756 5 80 5 C80 72.65 80 140.3 80 210 C79.67 210 79.34 210 79 210 C79 153.9 79 97.8 79 40 C72.73 40 66.46 40 60 40 C60 33.4 60 26.8 60 20 C53.4 20 46.8 20 40 20 C40 24.95 40 29.9 40 35 C35 33 35 33 32 31 C25.9250026 31.31108761 20.72162461 32.92463309 15.05078125 35.02734375 C13.78685295 35.48416283 13.78685295 35.48416283 12.49739075 35.95021057 C10.69789768 36.60154298 8.89974336 37.25658424 7.10284424 37.91503906 C3.32919358 39.29781124 -0.45082751 40.6627328 -4.23071289 42.02835083 C-6.13028239 42.71470633 -8.02953454 43.40194078 -9.9284668 44.09005737 C-19.03820756 47.38794838 -28.18909409 50.55497909 -37.35571289 53.69067383 C-42.61608738 55.49042707 -47.87118339 57.30057328 -53.109375 59.1640625 C-54.04797363 59.49728516 -54.98657227 59.83050781 -55.95361328 60.17382812 C-57.67215854 60.78573201 -59.3893984 61.40132122 -61.10498047 62.02148438 C-64.19281934 63.1194423 -66.69631721 64 -70 64 C-70 104.59 -70 145.18 -70 187 C-90.88675196 166.11324804 -101.3001742 131.23698142 -101.375 102.25 C-100.85793566 64.77331628 -88.16755765 27.72795316 -61 1 C-60.67 1 -60.34 1 -60 1 C-60 7.27 -60 13.54 -60 20 C-53.4 20 -46.8 20 -40 20 C-40 26.6 -40 33.2 -40 40 C-33.4 40 -26.8 40 -20 40 C-20 33.4 -20 26.8 -20 20 C-13.4 20 -6.8 20 0 20 C0 13.4 0 6.8 0 0 Z "
          fill="#F5F5F5" transform="translate(120,60)"/>
    <path d="M0 0 C0 53.46 0 106.92 0 162 C12.87 162 25.74 162 39 162 C39 162.33 39 162.66 39 163 C26.79 163 14.58 163 2 163 C2 165.97 2 168.94 2 172 C-4.6 172 -11.2 172 -18 172 C-18 169.03 -18 166.06 -18 163 C-24.6 163 -31.2 163 -38 163 C-38 165.97 -38 168.94 -38 172 C-43.84629897 173.31087227 -48.82578421 174.02286398 -54.37109375 171.4140625 C-57.06516289 169.57058181 -59.68298132 167.75984143 -62.09858704 165.5606842 C-64.03263258 163.86822503 -64.03263258 163.86822503 -66.70646667 162.56321716 C-71.39059027 159.54290919 -74.3742817 156.81807694 -75.6174469 151.21917534 C-76.52395487 143.01922332 -76.2981168 134.76744028 -76.11533332 126.53334951 C-76.04615764 122.88875985 -76.04007573 119.24405234 -76.02705383 115.59890747 C-75.99298189 108.70990441 -75.90288375 101.82284157 -75.79220945 94.93468964 C-75.66888271 87.08724032 -75.60868487 79.23969399 -75.55355966 71.39151549 C-75.43884922 55.25987791 -75.24560815 39.13018724 -75 23 C-72.37764986 22.13683464 -69.75266548 21.28419221 -67.125 20.4375 C-66.37863281 20.19064453 -65.63226563 19.94378906 -64.86328125 19.68945312 C-59.2265625 17.88671875 -59.2265625 17.88671875 -57 19 C-57.33 23.29 -57.66 27.58 -58 32 C-63.28 32 -68.56 32 -74 32 C-74 65 -74 98 -74 132 C-68.72 132 -63.44 132 -58 132 C-58 134.64 -58 137.28 -58 140 C-56.741875 139.835 -55.48375 139.67 -54.1875 139.5 C-48.7855491 138.88926988 -43.42939662 138.90866436 -38 139 C-38 136.69 -38 134.38 -38 132 C-31.4 132 -24.8 132 -18 132 C-18 133.65 -18 135.3 -18 137 C-16.35 137 -14.7 137 -13 137 C-13 141.95 -13 146.9 -13 152 C-9.04 152 -5.08 152 -1 152 C-1 119 -1 86 -1 52 C-6.61 52 -12.22 52 -18 52 C-18 54.64 -18 57.28 -18 60 C-16.35 60 -14.7 60 -13 60 C-13 67.92 -13 75.84 -13 84 C-13.33 84 -13.66 84 -14 84 C-14 76.41 -14 68.82 -14 61 C-20.77691086 62.64176809 -20.77691086 62.64176809 -27.55200195 64.29101562 C-28.39722412 64.49404297 -29.24244629 64.69707031 -30.11328125 64.90625 C-30.97735596 65.11572266 -31.84143066 65.32519531 -32.73168945 65.54101562 C-35 66 -35 66 -38 66 C-38 61.38 -38 56.76 -38 52 C-39.15757813 52.27714844 -40.31515625 52.55429688 -41.5078125 52.83984375 C-43.04684999 53.20583437 -44.58591389 53.57171391 -46.125 53.9375 C-47.26582031 54.21110352 -47.26582031 54.21110352 -48.4296875 54.49023438 C-49.17734375 54.66748047 -49.925 54.84472656 -50.6953125 55.02734375 C-51.37609863 55.18968506 -52.05688477 55.35202637 -52.75830078 55.51928711 C-55.48747414 56.10453459 -58.24675883 56.54112647 -61 57 C-61 50.07 -61 43.14 -61 36 C-51.98941618 32.62103107 -51.98941618 32.62103107 -48.85058594 31.55786133 C-48.14335388 31.3178389 -47.43612183 31.07781647 -46.7074585 30.83052063 C-45.97384094 30.58351913 -45.24022339 30.33651764 -44.484375 30.08203125 C-43.70612366 29.81992355 -42.92787231 29.55781586 -42.1260376 29.2877655 C-40.49610215 28.73988005 -38.86586963 28.19287763 -37.23535156 27.64672852 C-35.57039178 27.08787119 -33.90633372 26.52632064 -32.24316406 25.9621582 C-29.8254929 25.14209745 -27.4052987 24.32993214 -24.984375 23.51953125 C-23.87180328 23.13991997 -23.87180328 23.13991997 -22.73675537 22.75263977 C-19.27708544 21.60427353 -16.68714838 21 -13 21 C-13 24.63 -13 28.26 -13 32 C-9.04 32 -5.08 32 -1 32 C-1.33 22.1 -1.66 12.2 -2 2 C-4.31 2.33 -6.62 2.66 -9 3 C-5.73209435 0.82139623 -3.91954654 0 0 0 Z "
          fill="#E4E4E4" transform="translate(138,108)"/>
    <path d="M0 0 C6.6 0 13.2 0 20 0 C20 6.6 20 13.2 20 20 C22.26875 19.979375 24.5375 19.95875 26.875 19.9375 C33.75 19.875 33.75 19.875 36 21 C47.49909073 51.24260862 41.17175195 88.73422283 28.94580078 117.47851562 C26.84546875 122.11687263 24.46497783 126.547306 22 131 C21.57976562 131.98097656 21.15953125 132.96195313 20.7265625 133.97265625 C19.37074055 136.76634032 18.57614332 138.24613121 16 140 C10.34659938 140.76989651 5.82517724 140.42972619 0 140 C0 133.4 0 126.8 0 120 C6.6 120 13.2 120 20 120 C20 113.4 20 106.8 20 100 C13.4 100 6.8 100 0 100 C0 93.4 0 86.8 0 80 C6.6 80 13.2 80 20 80 C20 73.4 20 66.8 20 60 C13.4 60 6.8 60 0 60 C0 53.4 0 46.8 0 40 C-6.6 40 -13.2 40 -20 40 C-20 33.4 -20 26.8 -20 20 C-13.4 20 -6.8 20 0 20 C0 13.4 0 6.8 0 0 Z "
          fill="#F8F8F8" transform="translate(260,100)"/>
    <path d="M0 0 C6.6 0 13.2 0 20 0 C20.495 10.395 20.495 10.395 21 21 C13 24 13 24 10 24 C10 64.59 10 105.18 10 147 C-10.88675196 126.11324804 -21.3001742 91.23698142 -21.375 62.25 C-20.87310946 25.87310946 -20.87310946 25.87310946 -14 19 C-9.30151307 19.03380206 -4.68375395 19.57420419 0 20 C0 13.4 0 6.8 0 0 Z "
          fill="#F2F2F2" transform="translate(40,100)"/>
    <path d="M0 0 C5.61 0 11.22 0 17 0 C17 19.8 17 39.6 17 60 C13.04 60 9.08 60 5 60 C5 55.05 5 50.1 5 45 C3.35 45 1.7 45 0 45 C0 43.35 0 41.7 0 40 C-6.6 40 -13.2 40 -20 40 C-20 42.31 -20 44.62 -20 47 C-26.70019789 47.70132913 -33.26257354 48.11044961 -40 48 C-40 45.36 -40 42.72 -40 40 C-45.28 40 -50.56 40 -56 40 C-56 33.4 -56 26.8 -56 20 C-51.71 20 -47.42 20 -43 20 C-43 24.95 -43 29.9 -43 35 C-41.04320313 34.79503906 -39.08640625 34.59007812 -37.0703125 34.37890625 C-23.05259371 32.93135639 -9.08455027 31.61774343 5 31 C5 23.08 5 15.16 5 7 C3.35 7 1.7 7 0 7 C0 4.69 0 2.38 0 0 Z "
          fill="#F0F0F0" transform="translate(120,200)"/>
    <path d="M0 0 C6.27 0 12.54 0 19 0 C19 6.6 19 13.2 19 20 C25.6 20 32.2 20 39 20 C39 66.2 39 112.4 39 160 C34.05 160.33 29.1 160.66 24 161 C25.52206081 155.41759136 27.04469996 149.83534532 28.5703125 144.25390625 C28.95509766 142.8452832 28.95509766 142.8452832 29.34765625 141.40820312 C29.87337858 139.4836367 30.39942924 137.55915993 30.92578125 135.63476562 C31.17972656 134.70470703 31.43367188 133.77464844 31.6953125 132.81640625 C31.92234863 131.98568604 32.14938477 131.15496582 32.38330078 130.29907227 C37.711113 110.43683644 36.5561319 86.91513955 32 67 C31.75056641 65.8550708 31.75056641 65.8550708 31.49609375 64.68701172 C26.61061928 42.65261714 16.68130652 22.01055379 2.75 4.2578125 C1 2 1 2 0 0 Z "
          fill="#E9E9E9" transform="translate(281,60)"/>
    <path d="M0 0 C1.14597656 0.87914062 2.29195312 1.75828125 3.47265625 2.6640625 C37.68837189 28.29015306 77.90207142 38.73042783 120.3125 34.375 C133.50227787 32.40216998 146.8376154 28.63936786 159.171875 23.56640625 C161 23 161 23 163 24 C162.34 24.66 161.68 25.32 161 26 C160.67 30.29 160.34 34.58 160 39 C113.8 39 67.6 39 20 39 C20 32.4 20 25.8 20 19 C13.4 19 6.8 19 0 19 C0 12.73 0 6.46 0 0 Z "
          fill="#EAEAEA" transform="translate(60,281)"/>
    <path d="M0 0 C46.2 0 92.4 0 140 0 C140 6.6 140 13.2 140 20 C146.6 20 153.2 20 160 20 C160 26.27 160 32.54 160 39 C155.39160582 35.95251353 150.83741087 32.88196095 146.375 29.625 C134.71866055 21.49600137 122.2810493 16.30915407 108.91845703 11.68432617 C107.42176121 11.15044498 105.94741247 10.55379442 104.484375 9.93359375 C100.8604369 8.57176796 97.15033412 7.77188057 93.375 6.9375 C92.25931641 6.67743164 92.25931641 6.67743164 91.12109375 6.41210938 C61.2029053 -0.26194805 28.29607979 3.79528755 0 15 C0 10.05 0 5.1 0 0 Z "
          fill="#EAEAEA" transform="translate(100,0)"/>
    <path d="M0 0 C4.95 0 9.9 0 15 0 C14.443125 1.4025 13.88625 2.805 13.3125 4.25 C11.33737689 9.69740358 9.80101707 15.20225564 8.375 20.8125 C8.16915283 21.60495117 7.96330566 22.39740234 7.7512207 23.21386719 C4.76746709 35.24556058 3.67041291 47.12420709 3.75 59.5 C3.74226562 60.70269531 3.73453125 61.90539062 3.7265625 63.14453125 C3.76827957 82.56382961 7.4303187 103.44146821 16 121 C16.28746094 121.60618164 16.57492188 122.21236328 16.87109375 122.83691406 C22.69281167 135.10237992 29.12160093 146.83624399 37.75 157.390625 C39 159 39 159 39 160 C32.73 160 26.46 160 20 160 C20 153.4 20 146.8 20 140 C13.4 140 6.8 140 0 140 C0 93.8 0 47.6 0 0 Z "
          fill="#E9E9E9" transform="translate(0,100)"/>
    <path d="M0 0 C0 67.65 0 135.3 0 205 C-0.33 205 -0.66 205 -1 205 C-1 148.9 -1 92.8 -1 35 C-7.27 35 -13.54 35 -20 35 C-20 28.4 -20 21.8 -20 15 C-26.6 15 -33.2 15 -40 15 C-40 19.95 -40 24.9 -40 30 C-45 28 -45 28 -48 26 C-52.11132941 26.32629599 -56.03378012 26.84318587 -60 28 C-60.33 25.69 -60.66 23.38 -61 21 C-62.03640625 21.37253906 -63.0728125 21.74507812 -64.140625 22.12890625 C-65.51022242 22.60732727 -66.88002502 23.08516121 -68.25 23.5625 C-68.93191406 23.80935547 -69.61382812 24.05621094 -70.31640625 24.31054688 C-74.00256229 25.58101813 -76.2878308 26.17886454 -80 25 C-71.4374964 22.18183328 -62.87452723 19.36508688 -54.31097603 16.55010509 C-50.33371908 15.24266624 -46.35661843 13.93475619 -42.37988281 12.62573242 C-38.53528575 11.36022464 -34.69026797 10.09600278 -30.84496689 8.83263588 C-29.38497026 8.35271388 -27.92512055 7.8723447 -26.4654274 7.39150047 C-4.024211 0 -4.024211 0 0 0 Z "
          fill="#E0E0E0" transform="translate(200,65)"/>
    <path d="M0 0 C0.33 0 0.66 0 1 0 C1.33 48.18 1.66 96.36 2 146 C8.6 146 15.2 146 22 146 C22 152.6 22 159.2 22 166 C26.95 166 31.9 166 37 166 C34.56336065 170.8732787 31.39416381 174.76461024 28 179 C27.505 179.63292969 27.01 180.26585937 26.5 180.91796875 C25.38194573 182.31886413 24.19713449 183.66605014 23 185 C22.34 185 21.68 185 21 185 C21 184.34 21 183.68 21 183 C14.07 183 7.14 183 0 183 C0 122.61 0 62.22 0 0 Z "
          fill="#D4D4D4" transform="translate(238,74)"/>
    <path d="M0 0 C6.6 0 13.2 0 20 0 C20.495 6.93 20.495 6.93 21 14 C6.15 19.445 6.15 19.445 -9 25 C-9.33 27.64 -9.66 30.28 -10 33 C0.14520949 30.71580912 10.10842282 28.23411567 20 25 C20 27.64 20 30.28 20 33 C12.32307271 36.14719183 4.56360034 39.02378214 -3.25 41.8125 C-4.46333008 42.2461084 -5.67666016 42.6797168 -6.92675781 43.12646484 C-17.87248434 47.00862944 -28.90222805 50.58007436 -40 54 C-40 49.38 -40 44.76 -40 40 C-33.4 40 -26.8 40 -20 40 C-20 33.4 -20 26.8 -20 20 C-13.4 20 -6.8 20 0 20 C0 13.4 0 6.8 0 0 Z "
          fill="#E9E9E9" transform="translate(120,60)"/>
    <path d="M0 0 C0 7.92 0 15.84 0 24 C-1.66804688 24.44730469 -3.33609375 24.89460938 -5.0546875 25.35546875 C-7.32815699 25.96602675 -9.60159212 26.57671265 -11.875 27.1875 C-13.05199463 27.50340088 -14.22898926 27.81930176 -15.44165039 28.14477539 C-20.84444588 29.59819985 -26.2441768 31.05897771 -31.62890625 32.578125 C-32.86181396 32.92580933 -32.86181396 32.92580933 -34.11962891 33.28051758 C-35.63200637 33.70918913 -37.14345176 34.14116685 -38.65380859 34.5769043 C-41.5414838 35.39555362 -43.98078517 36 -47 36 C-47 29.07 -47 22.14 -47 15 C-37.99244823 11.62216809 -37.99244823 11.62216809 -34.8347168 10.55786133 C-34.12425705 10.3178389 -33.4137973 10.07781647 -32.68180847 9.83052063 C-31.94505386 9.58351913 -31.20829926 9.33651764 -30.44921875 9.08203125 C-29.66859573 8.81992355 -28.88797272 8.55781586 -28.08369446 8.2877655 C-26.44954677 7.73992574 -24.81511836 7.19292268 -23.18041992 6.64672852 C-20.6754638 5.80847222 -18.17271111 4.96384117 -15.66992188 4.11914062 C-14.07565257 3.58554375 -12.48125599 3.05232694 -10.88671875 2.51953125 C-10.13984299 2.26645706 -9.39296722 2.01338287 -8.62345886 1.75263977 C-5.62988588 0.75909286 -3.17653749 0 0 0 Z "
          fill="#040404" transform="translate(124,129)"/>
    <path d="M0 0 C0 7.59 0 15.18 0 23 C-15.51 23 -31.02 23 -47 23 C-47 16.07 -47 9.14 -47 2 C-31.1946309 0.41946309 -15.88478793 -0.18798566 0 0 Z "
          fill="#030303" transform="translate(124,247)"/>
    <path d="M0 0 C15.51 0 31.02 0 47 0 C41.47652791 5.52347209 35.69827699 9.1750786 29 13 C27.97132813 13.59039062 26.94265625 14.18078125 25.8828125 14.7890625 C18.44735847 18.77039363 10.78259189 21.6525217 2.8125 24.375 C1.81500732 24.72111328 0.81751465 25.06722656 -0.21020508 25.42382812 C-6.86883499 27.61790576 -12.99866149 28.59795431 -20 29 C-20 22.73 -20 16.46 -20 10 C-13.4 10 -6.8 10 0 10 C0 6.7 0 3.4 0 0 Z "
          fill="#FCFCFC" transform="translate(200,270)"/>
    <path d="M0 0 C0 7.59 0 15.18 0 23 C-4.9245837 23.98388918 -9.84963016 24.96415917 -14.77661133 25.93579102 C-16.44791195 26.26644691 -18.11882233 26.59908238 -19.78930664 26.93383789 C-28.85618832 28.74938528 -37.75295057 30.40798872 -47 31 C-47 24.4 -47 17.8 -47 11 C-21.48142037 4.02792452 -21.48142037 4.02792452 -11.125 1.5625 C-10.44961182 1.39911133 -9.77422363 1.23572266 -9.07836914 1.06738281 C-5.91464659 0.33069855 -3.28167832 0 0 0 Z "
          fill="#050505" transform="translate(124,169)"/>
    <path d="M0 0 C0 7.59 0 15.18 0 23 C-9.69847688 24.20158121 -19.39008355 25.26491198 -29.125 26.125 C-30.09574463 26.21249512 -31.06648926 26.29999023 -32.06665039 26.39013672 C-32.99598389 26.47021973 -33.92531738 26.55030273 -34.8828125 26.6328125 C-35.70152832 26.70387207 -36.52024414 26.77493164 -37.36376953 26.84814453 C-40.57092868 27.03288735 -43.78752436 27 -47 27 C-47 20.4 -47 13.8 -47 7 C-42.19910833 6.16048579 -37.39792646 5.3232346 -32.59570312 4.49145508 C-30.96624872 4.20855474 -29.33701103 3.92440294 -27.70800781 3.63891602 C-6.93241025 0 -6.93241025 0 0 0 Z "
          fill="#050505" transform="translate(124,208)"/>
    <path d="M0 0 C6.6 0 13.2 0 20 0 C21.91983085 17.3984671 21.91983085 17.3984671 19.4609375 21.6796875 C17.39334997 23.42203654 15.38528718 24.73487531 13 26 C9.00646789 29.01949989 5.88847168 32.3019196 2.6484375 36.09375 C0.85817559 38.16400548 -1.02578518 40.10475378 -3 42 C-3 41.34 -3 40.68 -3 40 C-8.61 40 -14.22 40 -20 40 C-20 33.4 -20 26.8 -20 20 C-13.4 20 -6.8 20 0 20 C0 13.4 0 6.8 0 0 Z "
          fill="#ECECEC" transform="translate(40,20)"/>
    <path d="M0 0 C5.61 0 11.22 0 17 0 C17 13.2 17 26.4 17 40 C11.39 40 5.78 40 0 40 C0 42.31 0 44.62 0 47 C1.65 47 3.3 47 5 47 C5 54.92 5 62.84 5 71 C4.67 71 4.34 71 4 71 C4 63.41 4 55.82 4 48 C3.01 48.495 3.01 48.495 2 49 C-0.58415278 49.39689342 -3.15576481 49.74868123 -5.75 50.0625 C-6.45382813 50.15337891 -7.15765625 50.24425781 -7.8828125 50.33789062 C-11.94891149 50.84048464 -15.8938181 51.09684391 -20 51 C-20 47.37 -20 43.74 -20 40 C-25.61 40 -31.22 40 -37 40 C-37 39.67 -37 39.34 -37 39 C-32.14539984 37.99430873 -27.28905058 36.997716 -22.4309082 36.00927734 C-20.7806649 35.672216 -19.13091418 35.33273307 -17.48168945 34.99072266 C-15.1023494 34.49775157 -12.72133664 34.01369959 -10.33984375 33.53125 C-9.61039047 33.37813354 -8.88093719 33.22501709 -8.12937927 33.06726074 C-7.42918167 32.92711548 -6.72898407 32.78697021 -6.00756836 32.64257812 C-5.4013414 32.51822388 -4.79511444 32.39386963 -4.17051697 32.26574707 C-1.13506134 31.8941013 1.94187779 32 5 32 C5 24.08 5 16.16 5 8 C3.35 8 1.7 8 0 8 C0 5.36 0 2.72 0 0 Z "
          fill="#EDEDED" transform="translate(120,160)"/>
    <path d="M0 0 C0 10.23 0 20.46 0 31 C-3.96 31 -7.92 31 -12 31 C-12 27.37 -12 23.74 -12 20 C-13.55332031 20.5053125 -15.10664062 21.010625 -16.70703125 21.53125 C-18.74211388 22.18772827 -20.77727418 22.84396579 -22.8125 23.5 C-23.83666016 23.83386719 -24.86082031 24.16773438 -25.91601562 24.51171875 C-26.89892578 24.82753906 -27.88183594 25.14335937 -28.89453125 25.46875 C-29.80050049 25.76201172 -30.70646973 26.05527344 -31.63989258 26.35742188 C-34 27 -34 27 -37 27 C-37 22.05 -37 17.1 -37 12 C-41.4318623 13.67853967 -41.4318623 13.67853967 -45.85449219 15.38110352 C-49.38959038 16.68203189 -51.43614346 17.12309272 -55 16 C-50.04495458 14.35489552 -45.08677061 12.71971679 -40.12573242 11.09277344 C-38.44650066 10.54065342 -36.76808074 9.98605665 -35.09057617 9.42871094 C-6.69381769 0 -6.69381769 0 0 0 Z "
          fill="#E5E5E5" transform="translate(137,109)"/>
    <path d="M0 0 C-0.33 4.29 -0.66 8.58 -1 13 C-6.28 13 -11.56 13 -17 13 C-17 46 -17 79 -17 113 C-11.72 113 -6.44 113 -1 113 C-1 115.64 -1 118.28 -1 121 C0.258125 120.835 1.51625 120.67 2.8125 120.5 C8.2144509 119.88926988 13.57060338 119.90866436 19 120 C19 120.33 19 120.66 19 121 C11.32568744 122.25294899 3.75769239 122.06926511 -4 122 C-4 129.26 -4 136.52 -4 144 C-3.01 144 -2.02 144 -1 144 C-1 144.99 -1 145.98 -1 147 C-6.91230176 146.24772968 -11.37145336 143.54451107 -15.42443848 139.24594116 C-21.67160284 130.74129112 -19.46141306 117.51569487 -19.21672726 107.43195558 C-19.14118885 103.79008581 -19.1346225 100.14807123 -19.12042236 96.50553894 C-19.0832737 89.62347273 -18.98501606 82.74372178 -18.86422849 75.8626706 C-18.72962282 68.02250647 -18.6640035 60.18222573 -18.60388327 52.34119189 C-18.47879217 36.2261106 -18.26802753 20.1133517 -18 4 C-15.37764986 3.13683464 -12.75266548 2.28419221 -10.125 1.4375 C-9.37863281 1.19064453 -8.63226563 0.94378906 -7.86328125 0.68945312 C-2.2265625 -1.11328125 -2.2265625 -1.11328125 0 0 Z "
          fill="#E8E8E8" transform="translate(81,127)"/>
    <path d="M0 0 C3.75054361 3.34324476 5.98062538 7.03069066 8.375 11.375 C8.96099976 12.43086304 8.96099976 12.43086304 9.55883789 13.50805664 C14.68298647 22.89758738 19.1703054 32.38777132 21 43 C16.05 42.67 11.1 42.34 6 42 C6 35.4 6 28.8 6 22 C-0.6 22 -7.2 22 -14 22 C-14 15.4 -14 8.8 -14 2 C-9.38 2 -4.76 2 0 2 C0 1.34 0 0.68 0 0 Z "
          fill="#EAEAEA" transform="translate(274,78)"/>
    <path d="M0 0 C1.72083612 3.33183164 3.41351088 6.66980737 5.03515625 10.05078125 C9.76931033 19.69709797 15.22856541 28.44475586 22 36.80859375 C23.28515625 38.48828125 23.28515625 38.48828125 23.28515625 39.48828125 C17.01515625 39.48828125 10.74515625 39.48828125 4.28515625 39.48828125 C4.28515625 32.88828125 4.28515625 26.28828125 4.28515625 19.48828125 C-2.31484375 19.48828125 -8.91484375 19.48828125 -15.71484375 19.48828125 C-15.71484375 12.88828125 -15.71484375 6.28828125 -15.71484375 -0.51171875 C-13.46671875 -0.75921875 -11.21859375 -1.00671875 -8.90234375 -1.26171875 C-7.00548828 -1.47054687 -7.00548828 -1.47054687 -5.0703125 -1.68359375 C-1.71484375 -1.51171875 -1.71484375 -1.51171875 0 0 Z "
          fill="#E9E9E9" transform="translate(15.71484375,220.51171875)"/>
    <path d="M0 0 C6.6 0 13.2 0 20 0 C20 6.6 20 13.2 20 20 C26.6 20 33.2 20 40 20 C40 26.27 40 32.54 40 39 C35.39160582 35.95251353 30.83741087 32.88196095 26.375 29.625 C17.89972082 23.65649353 8.55514324 18.97415457 -1 15 C-0.67 10.05 -0.34 5.1 0 0 Z "
          fill="#E9E9E9" transform="translate(220,0)"/>
    <path d="M0 0 C0.99 0 1.98 0 3 0 C3 67.65 3 135.3 3 205 C2.67 205 2.34 205 2 205 C2 148.9 2 92.8 2 35 C-4.27 35 -10.54 35 -17 35 C-17 28.4 -17 21.8 -17 15 C-10.73 15 -4.46 15 2 15 C2 10.38 2 5.76 2 1 C1.34 0.67 0.68 0.34 0 0 Z "
          fill="#C5C5C5" transform="translate(197,65)"/>
    <path d="M0 0 C0 5.28 0 10.56 0 16 C-10.89 19.465 -10.89 19.465 -22 23 C-22.33 28.28 -22.66 33.56 -23 39 C-27.29 39 -31.58 39 -36 39 C-36 32.4 -36 25.8 -36 19 C-30.72 19 -25.44 19 -20 19 C-20 14.71 -20 10.42 -20 6 C-17.86484361 5.2882812 -15.72958133 4.57687829 -13.59375 3.8671875 C-11.88331055 3.29532371 -10.17490694 2.71732923 -8.46875 2.1328125 C-7.6746875 1.86210938 -6.880625 1.59140625 -6.0625 1.3125 C-5.33160156 1.06113281 -4.60070312 0.80976562 -3.84765625 0.55078125 C-2 0 -2 0 0 0 Z "
          fill="#FBFBFB" transform="translate(100,121)"/>
    <path d="M0 0 C12.51962211 -0.22304384 24.6386543 -0.15649645 37 2 C37 2.33 37 2.66 37 3 C35.35 3 33.7 3 32 3 C32 8.94 32 14.88 32 21 C25.4 21 18.8 21 12 21 C12 14.4 12 7.8 12 1 C8.04 1 4.08 1 0 1 C0 0.67 0 0.34 0 0 Z "
          fill="#E7E7E7" transform="translate(148,19)"/>
    <path d="M0 0 C0.33 0 0.66 0 1 0 C1 2.64 1 5.28 1 8 C7.6 8 14.2 8 21 8 C21 14.6 21 21.2 21 28 C15.06 28 9.12 28 3 28 C3 29.65 3 31.3 3 33 C2.67 33 2.34 33 2 33 C-0.53718993 22.05836843 -0.20392721 11.16266152 0 0 Z "
          fill="#E7E7E7" transform="translate(19,152)"/>
    <path d="M0 0 C0.33 0 0.66 0 1 0 C2.65530095 13.06505392 3.24972046 25.83418232 3 39 C2.67 39 2.34 39 2 39 C2 35.04 2 31.08 2 27 C-4.6 27 -11.2 27 -18 27 C-18 20.4 -18 13.8 -18 7 C-12.06 7 -6.12 7 0 7 C0 4.69 0 2.38 0 0 Z "
          fill="#E7E7E7" transform="translate(298,133)"/>
    <path d="M0 0 C0 3 0 3 -1.3125 4.60546875 C-2.875 6.0703125 -4.4375 7.53515625 -6 9 C-1.05 9.33 3.9 9.66 9 10 C9 16.6 9 23.2 9 30 C2.4 30 -4.2 30 -11 30 C-11 24.39 -11 18.78 -11 13 C-11.66 12.67 -12.32 12.34 -13 12 C-12.31292969 11.38511719 -11.62585938 10.77023437 -10.91796875 10.13671875 C-10.01691406 9.32847656 -9.11585938 8.52023437 -8.1875 7.6875 C-7.29417969 6.88699219 -6.40085937 6.08648437 -5.48046875 5.26171875 C-3.60073214 3.54775419 -1.77407253 1.82122396 0 0 Z "
          fill="#EBEBEB" transform="translate(271,270)"/>
    <path d="M0 0 C6.6 0 13.2 0 20 0 C20 6.6 20 13.2 20 20 C23.96 20 27.92 20 32 20 C32 20.33 32 20.66 32 21 C28.16673205 21.05859888 24.33358112 21.09379643 20.5 21.125 C19.42234375 21.14175781 18.3446875 21.15851563 17.234375 21.17578125 C16.17734375 21.18222656 15.1203125 21.18867188 14.03125 21.1953125 C13.06767578 21.20578613 12.10410156 21.21625977 11.11132812 21.22705078 C8 21 8 21 0 19 C0 12.73 0 6.46 0 0 Z "
          fill="#E7E7E7" transform="translate(140,280)"/>
    <path d="M0 0 C6.6 0 13.2 0 20 0 C20 6.6 20 13.2 20 20 C13.4 20 6.8 20 0 20 C0 13.4 0 6.8 0 0 Z " fill="#FEFEFE"
          transform="translate(300,300)"/>
    <path d="M0 0 C6.6 0 13.2 0 20 0 C20 6.6 20 13.2 20 20 C13.4 20 6.8 20 0 20 C0 13.4 0 6.8 0 0 Z " fill="#EDEDED"
          transform="translate(280,300)"/>
    <path d="M0 0 C6.6 0 13.2 0 20 0 C20 6.6 20 13.2 20 20 C13.4 20 6.8 20 0 20 C0 13.4 0 6.8 0 0 Z " fill="#FEFEFE"
          transform="translate(260,300)"/>
    <path d="M0 0 C6.6 0 13.2 0 20 0 C20 6.6 20 13.2 20 20 C13.4 20 6.8 20 0 20 C0 13.4 0 6.8 0 0 Z " fill="#EDEDED"
          transform="translate(240,300)"/>
    <path d="M0 0 C6.6 0 13.2 0 20 0 C20 6.6 20 13.2 20 20 C13.4 20 6.8 20 0 20 C0 13.4 0 6.8 0 0 Z " fill="#FEFEFE"
          transform="translate(60,300)"/>
    <path d="M0 0 C6.6 0 13.2 0 20 0 C20 6.6 20 13.2 20 20 C13.4 20 6.8 20 0 20 C0 13.4 0 6.8 0 0 Z " fill="#EDEDED"
          transform="translate(40,300)"/>
    <path d="M0 0 C6.6 0 13.2 0 20 0 C20 6.6 20 13.2 20 20 C13.4 20 6.8 20 0 20 C0 13.4 0 6.8 0 0 Z " fill="#FEFEFE"
          transform="translate(20,300)"/>
    <path d="M0 0 C6.6 0 13.2 0 20 0 C20 6.6 20 13.2 20 20 C13.4 20 6.8 20 0 20 C0 13.4 0 6.8 0 0 Z " fill="#EDEDED"
          transform="translate(0,300)"/>
    <path d="M0 0 C6.6 0 13.2 0 20 0 C20 6.6 20 13.2 20 20 C13.4 20 6.8 20 0 20 C0 13.4 0 6.8 0 0 Z " fill="#EDEDED"
          transform="translate(300,280)"/>
    <path d="M0 0 C6.6 0 13.2 0 20 0 C20 6.6 20 13.2 20 20 C13.4 20 6.8 20 0 20 C0 13.4 0 6.8 0 0 Z " fill="#FDFDFD"
          transform="translate(280,280)"/>
    <path d="M0 0 C6.6 0 13.2 0 20 0 C20 6.6 20 13.2 20 20 C13.4 20 6.8 20 0 20 C0 13.4 0 6.8 0 0 Z " fill="#EDEDED"
          transform="translate(20,280)"/>
    <path d="M0 0 C6.6 0 13.2 0 20 0 C20 6.6 20 13.2 20 20 C13.4 20 6.8 20 0 20 C0 13.4 0 6.8 0 0 Z " fill="#FEFEFE"
          transform="translate(0,280)"/>
    <path d="M0 0 C6.6 0 13.2 0 20 0 C20 6.6 20 13.2 20 20 C13.4 20 6.8 20 0 20 C0 13.4 0 6.8 0 0 Z " fill="#FEFEFE"
          transform="translate(300,260)"/>
    <path d="M0 0 C6.6 0 13.2 0 20 0 C20 6.6 20 13.2 20 20 C13.4 20 6.8 20 0 20 C0 13.4 0 6.8 0 0 Z " fill="#EDEDED"
          transform="translate(300,240)"/>
    <path d="M0 0 C6.6 0 13.2 0 20 0 C20 6.6 20 13.2 20 20 C13.4 20 6.8 20 0 20 C0 13.4 0 6.8 0 0 Z " fill="#FEFEFE"
          transform="translate(0,240)"/>
    <path d="M0 0 C6.6 0 13.2 0 20 0 C20 6.6 20 13.2 20 20 C13.4 20 6.8 20 0 20 C0 13.4 0 6.8 0 0 Z " fill="#EDEDED"
          transform="translate(260,200)"/>
    <path d="M0 0 C6.6 0 13.2 0 20 0 C20 6.6 20 13.2 20 20 C13.4 20 6.8 20 0 20 C0 13.4 0 6.8 0 0 Z " fill="#FDFDFD"
          transform="translate(240,200)"/>
    <path d="M0 0 C6.6 0 13.2 0 20 0 C20 6.6 20 13.2 20 20 C13.4 20 6.8 20 0 20 C0 13.4 0 6.8 0 0 Z " fill="#FDFDFD"
          transform="translate(260,180)"/>
    <path d="M0 0 C6.6 0 13.2 0 20 0 C20 6.6 20 13.2 20 20 C13.4 20 6.8 20 0 20 C0 13.4 0 6.8 0 0 Z " fill="#EDEDED"
          transform="translate(260,160)"/>
    <path d="M0 0 C6.6 0 13.2 0 20 0 C20 6.6 20 13.2 20 20 C13.4 20 6.8 20 0 20 C0 13.4 0 6.8 0 0 Z " fill="#FDFDFD"
          transform="translate(240,160)"/>
    <path d="M0 0 C6.6 0 13.2 0 20 0 C20 6.6 20 13.2 20 20 C13.4 20 6.8 20 0 20 C0 13.4 0 6.8 0 0 Z " fill="#FDFDFD"
          transform="translate(240,120)"/>
    <path d="M0 0 C6.6 0 13.2 0 20 0 C20 6.6 20 13.2 20 20 C13.4 20 6.8 20 0 20 C0 13.4 0 6.8 0 0 Z " fill="#FDFDFD"
          transform="translate(260,100)"/>
    <path d="M0 0 C6.6 0 13.2 0 20 0 C20 6.6 20 13.2 20 20 C13.4 20 6.8 20 0 20 C0 13.4 0 6.8 0 0 Z " fill="#EDEDED"
          transform="translate(240,100)"/>
    <path d="M0 0 C6.6 0 13.2 0 20 0 C20 6.6 20 13.2 20 20 C13.4 20 6.8 20 0 20 C0 13.4 0 6.8 0 0 Z " fill="#FDFDFD"
          transform="translate(240,80)"/>
    <path d="M0 0 C6.6 0 13.2 0 20 0 C20 6.6 20 13.2 20 20 C13.4 20 6.8 20 0 20 C0 13.4 0 6.8 0 0 Z " fill="#FDFDFD"
          transform="translate(80,80)"/>
    <path d="M0 0 C6.6 0 13.2 0 20 0 C20 6.6 20 13.2 20 20 C13.4 20 6.8 20 0 20 C0 13.4 0 6.8 0 0 Z " fill="#FEFEFE"
          transform="translate(300,60)"/>
    <path d="M0 0 C6.6 0 13.2 0 20 0 C20 6.6 20 13.2 20 20 C13.4 20 6.8 20 0 20 C0 13.4 0 6.8 0 0 Z " fill="#FDFDFD"
          transform="translate(100,60)"/>
    <path d="M0 0 C6.6 0 13.2 0 20 0 C20 6.6 20 13.2 20 20 C13.4 20 6.8 20 0 20 C0 13.4 0 6.8 0 0 Z " fill="#EDEDED"
          transform="translate(80,60)"/>
    <path d="M0 0 C6.6 0 13.2 0 20 0 C20 6.6 20 13.2 20 20 C13.4 20 6.8 20 0 20 C0 13.4 0 6.8 0 0 Z " fill="#EDEDED"
          transform="translate(0,60)"/>
    <path d="M0 0 C6.6 0 13.2 0 20 0 C20 6.6 20 13.2 20 20 C13.4 20 6.8 20 0 20 C0 13.4 0 6.8 0 0 Z " fill="#EDEDED"
          transform="translate(300,40)"/>
    <path d="M0 0 C6.6 0 13.2 0 20 0 C20 6.6 20 13.2 20 20 C13.4 20 6.8 20 0 20 C0 13.4 0 6.8 0 0 Z " fill="#EDEDED"
          transform="translate(140,40)"/>
    <path d="M0 0 C6.6 0 13.2 0 20 0 C20 6.6 20 13.2 20 20 C13.4 20 6.8 20 0 20 C0 13.4 0 6.8 0 0 Z " fill="#FDFDFD"
          transform="translate(120,40)"/>
    <path d="M0 0 C6.6 0 13.2 0 20 0 C20 6.6 20 13.2 20 20 C13.4 20 6.8 20 0 20 C0 13.4 0 6.8 0 0 Z " fill="#EDEDED"
          transform="translate(100,40)"/>
    <path d="M0 0 C6.6 0 13.2 0 20 0 C20 6.6 20 13.2 20 20 C13.4 20 6.8 20 0 20 C0 13.4 0 6.8 0 0 Z " fill="#FEFEFE"
          transform="translate(0,40)"/>
    <path d="M0 0 C6.6 0 13.2 0 20 0 C20 6.6 20 13.2 20 20 C13.4 20 6.8 20 0 20 C0 13.4 0 6.8 0 0 Z " fill="#FEFEFE"
          transform="translate(300,20)"/>
    <path d="M0 0 C6.6 0 13.2 0 20 0 C20 6.6 20 13.2 20 20 C13.4 20 6.8 20 0 20 C0 13.4 0 6.8 0 0 Z " fill="#EDEDED"
          transform="translate(280,20)"/>
    <path d="M0 0 C6.6 0 13.2 0 20 0 C20 6.6 20 13.2 20 20 C13.4 20 6.8 20 0 20 C0 13.4 0 6.8 0 0 Z " fill="#FDFDFD"
          transform="translate(20,20)"/>
    <path d="M0 0 C6.6 0 13.2 0 20 0 C20 6.6 20 13.2 20 20 C13.4 20 6.8 20 0 20 C0 13.4 0 6.8 0 0 Z " fill="#EDEDED"
          transform="translate(0,20)"/>
    <path d="M0 0 C6.6 0 13.2 0 20 0 C20 6.6 20 13.2 20 20 C13.4 20 6.8 20 0 20 C0 13.4 0 6.8 0 0 Z " fill="#EDEDED"
          transform="translate(300,0)"/>
    <path d="M0 0 C6.6 0 13.2 0 20 0 C20 6.6 20 13.2 20 20 C13.4 20 6.8 20 0 20 C0 13.4 0 6.8 0 0 Z " fill="#FEFEFE"
          transform="translate(280,0)"/>
    <path d="M0 0 C6.6 0 13.2 0 20 0 C20 6.6 20 13.2 20 20 C13.4 20 6.8 20 0 20 C0 13.4 0 6.8 0 0 Z " fill="#FEFEFE"
          transform="translate(240,0)"/>
    <path d="M0 0 C6.6 0 13.2 0 20 0 C20 6.6 20 13.2 20 20 C13.4 20 6.8 20 0 20 C0 13.4 0 6.8 0 0 Z " fill="#EDEDED"
          transform="translate(60,0)"/>
    <path d="M0 0 C6.6 0 13.2 0 20 0 C20 6.6 20 13.2 20 20 C13.4 20 6.8 20 0 20 C0 13.4 0 6.8 0 0 Z " fill="#FEFEFE"
          transform="translate(40,0)"/>
    <path d="M0 0 C6.6 0 13.2 0 20 0 C20 6.6 20 13.2 20 20 C13.4 20 6.8 20 0 20 C0 13.4 0 6.8 0 0 Z " fill="#FEFEFE"
          transform="translate(0,0)"/>
    <path d="M0 0 C3.114375 -0.020625 6.22875 -0.04125 9.4375 -0.0625 C10.91174438 -0.07615601 10.91174438 -0.07615601 12.41577148 -0.09008789 C13.18477783 -0.09258545 13.95378418 -0.09508301 14.74609375 -0.09765625 C15.93223267 -0.10551147 15.93223267 -0.10551147 17.14233398 -0.11352539 C19 0 19 0 20 1 C20.08651611 2.41570123 20.10704904 3.835595 20.09765625 5.25390625 C20.09515869 6.0229126 20.09266113 6.79191895 20.09008789 7.58422852 C20.08098389 8.56705811 20.07187988 9.5498877 20.0625 10.5625 C20.041875 13.676875 20.02125 16.79125 20 20 C13.4 20 6.8 20 0 20 C0 13.4 0 6.8 0 0 Z "
          fill="#FDFDFD" transform="translate(40,280)"/>
    <path d="M0 0 C6.6 0 13.2 0 20 0 C20 6.6 20 13.2 20 20 C16.885625 20.020625 13.77125 20.04125 10.5625 20.0625 C9.08825562 20.07615601 9.08825562 20.07615601 7.58422852 20.09008789 C6.81522217 20.09258545 6.04621582 20.09508301 5.25390625 20.09765625 C4.46314697 20.10289307 3.6723877 20.10812988 2.85766602 20.11352539 C1 20 1 20 0 19 C-0.08651611 17.58429877 -0.10704904 16.164405 -0.09765625 14.74609375 C-0.09515869 13.9770874 -0.09266113 13.20808105 -0.09008789 12.41577148 C-0.07643188 10.9415271 -0.07643188 10.9415271 -0.0625 9.4375 C-0.041875 6.323125 -0.02125 3.20875 0 0 Z "
          fill="#FDFDFD" transform="translate(280,40)"/>
    <path d="M0 0 C6.6 0 13.2 0 20 0 C20 6.27 20 12.54 20 19 C17.703463 20.1482685 16.41686833 20.11561175 13.8671875 20.09765625 C13.14128418 20.09515869 12.41538086 20.09266113 11.66748047 20.09008789 C10.74596191 20.08098389 9.82444336 20.07187988 8.875 20.0625 C5.94625 20.041875 3.0175 20.02125 0 20 C0 13.4 0 6.8 0 0 Z "
          fill="#FDFDFD" transform="translate(160,280)"/>
    <path d="M0 0 C6.6 0 13.2 0 20 0 C20.020625 2.92875 20.04125 5.8575 20.0625 8.875 C20.071604 9.79651855 20.08070801 10.71803711 20.09008789 11.66748047 C20.09258545 12.39338379 20.09508301 13.11928711 20.09765625 13.8671875 C20.10551147 14.98262939 20.10551147 14.98262939 20.11352539 16.12060547 C20 18 20 18 19 20 C12.73 20 6.46 20 0 20 C0 13.4 0 6.8 0 0 Z "
          fill="#FDFDFD" transform="translate(280,160)"/>
    <path d="M0 0 C0.72590332 0.00249756 1.45180664 0.00499512 2.19970703 0.00756836 C3.12122559 0.01667236 4.04274414 0.02577637 4.9921875 0.03515625 C7.9209375 0.05578125 10.8496875 0.07640625 13.8671875 0.09765625 C13.8671875 6.69765625 13.8671875 13.29765625 13.8671875 20.09765625 C7.2671875 20.09765625 0.6671875 20.09765625 -6.1328125 20.09765625 C-6.1328125 13.82765625 -6.1328125 7.55765625 -6.1328125 1.09765625 C-3.8362755 -0.05061225 -2.54968083 -0.0179555 0 0 Z "
          fill="#FDFDFD" transform="translate(66.1328125,59.90234375)"/>
    <path d="M0 0 C6.27 0 12.54 0 19 0 C19 6.6 19 13.2 19 20 C12.4 20 5.8 20 -1 20 C-1.020625 17.256875 -1.04125 14.51375 -1.0625 11.6875 C-1.071604 10.82729248 -1.08070801 9.96708496 -1.09008789 9.08081055 C-1.09258545 8.39801025 -1.09508301 7.71520996 -1.09765625 7.01171875 C-1.10289307 6.31522217 -1.10812988 5.61872559 -1.11352539 4.90112305 C-1 3 -1 3 0 0 Z "
          fill="#FDFDFD" transform="translate(21,140)"/>
    <path d="M0 0 C1.02420044 0.00374634 1.02420044 0.00374634 2.0690918 0.00756836 C2.92929932 0.01667236 3.78950684 0.02577637 4.67578125 0.03515625 C7.41890625 0.05578125 10.16203125 0.07640625 12.98828125 0.09765625 C12.98828125 6.69765625 12.98828125 13.29765625 12.98828125 20.09765625 C6.38828125 20.09765625 -0.21171875 20.09765625 -7.01171875 20.09765625 C-7.01171875 13.82765625 -7.01171875 7.55765625 -7.01171875 1.09765625 C-4.30455633 0.19526878 -2.77395107 -0.02085677 0 0 Z "
          fill="#FDFDFD" transform="translate(147.01171875,19.90234375)"/>
    <path d="M0 0 C-0.99 0.495 -0.99 0.495 -2 1 C-2 5.62 -2 10.24 -2 15 C-4.89574514 15.30370743 -7.78661669 15.5687095 -10.6875 15.8125 C-11.50412109 15.90208984 -12.32074219 15.99167969 -13.16210938 16.08398438 C-17.76504048 16.438056 -19.34310421 16.53034553 -23.08203125 13.51171875 C-23.71496094 12.68285156 -24.34789062 11.85398437 -25 11 C-24.34 11 -23.68 11 -23 11 C-22.67 5.72 -22.34 0.44 -22 -5 C-12.2860274 -6.17035814 -8.11921383 -5.66456779 0 0 Z "
          fill="#EBEBEB" transform="translate(242,45)"/>
    <path d="M0 0 C6.27 0 12.54 0 19 0 C19.78125907 6.83601687 20 13.01206347 20 20 C13.4 20 6.8 20 0 20 C0 13.4 0 6.8 0 0 Z "
          fill="#FDFDFD" transform="translate(180,260)"/>
    <path d="M0 0 C6.6 0 13.2 0 20 0 C20 6.6 20 13.2 20 20 C6.14285714 20.57142857 6.14285714 20.57142857 0 16 C0 10.72 0 5.44 0 0 Z "
          fill="#FCFCFC" transform="translate(160,80)"/>
    <path d="M0 0 C6.27 0 12.54 0 19 0 C19 6.6 19 13.2 19 20 C12.73 20 6.46 20 0 20 C0 13.4 0 6.8 0 0 Z " fill="#ECECEC"
          transform="translate(180,240)"/>
    <path d="M0 0 C6.27 0 12.54 0 19 0 C19 6.6 19 13.2 19 20 C12.73 20 6.46 20 0 20 C0 13.4 0 6.8 0 0 Z " fill="#FDFDFD"
          transform="translate(180,220)"/>
    <path d="M0 0 C6.27 0 12.54 0 19 0 C19 6.6 19 13.2 19 20 C12.73 20 6.46 20 0 20 C0 13.4 0 6.8 0 0 Z " fill="#ECECEC"
          transform="translate(180,200)"/>
    <path d="M0 0 C6.27 0 12.54 0 19 0 C19 6.6 19 13.2 19 20 C12.73 20 6.46 20 0 20 C0 13.4 0 6.8 0 0 Z " fill="#FDFDFD"
          transform="translate(180,180)"/>
    <path d="M0 0 C6.27 0 12.54 0 19 0 C19 6.6 19 13.2 19 20 C12.73 20 6.46 20 0 20 C0 13.4 0 6.8 0 0 Z " fill="#ECECEC"
          transform="translate(180,160)"/>
    <path d="M0 0 C6.27 0 12.54 0 19 0 C19 6.6 19 13.2 19 20 C12.73 20 6.46 20 0 20 C0 13.4 0 6.8 0 0 Z " fill="#FDFDFD"
          transform="translate(180,140)"/>
    <path d="M0 0 C6.27 0 12.54 0 19 0 C19 6.6 19 13.2 19 20 C12.73 20 6.46 20 0 20 C0 13.4 0 6.8 0 0 Z " fill="#FDFDFD"
          transform="translate(180,100)"/>
    <path d="M0 0 C4.95 0.33 9.9 0.66 15 1 C15 7.6 15 14.2 15 21 C8.73 21 2.46 21 -4 21 C-2.6779661 5.3559322 -2.6779661 5.3559322 0 0 Z "
          fill="#E9E9E9" transform="translate(25,119)"/>
    <path d="M0 0 C0 6.27 0 12.54 0 19 C-6.6 19 -13.2 19 -20 19 C-20 14.38 -20 9.76 -20 5 C-20.66 4.67 -21.32 4.34 -22 4 C-19.4604163 3.32438628 -16.91881165 2.65934172 -14.375 2 C-13.66214844 1.80921875 -12.94929688 1.6184375 -12.21484375 1.421875 C-11.51230469 1.24140625 -10.80976563 1.0609375 -10.0859375 0.875 C-9.4470459 0.70742188 -8.8081543 0.53984375 -8.14990234 0.3671875 C-6 0 -6 0 0 0 Z "
          fill="#EAEAEA" transform="translate(140,21)"/>
    <path d="M0 0 C6.27 0 12.54 0 19 0 C18.51929183 7.49904746 17.3757045 13.87288651 15 21 C10.05 20.67 5.1 20.34 0 20 C0 13.4 0 6.8 0 0 Z "
          fill="#EAEAEA" transform="translate(280,180)"/>
    <path d="M0 0 C6.6 0 13.2 0 20 0 C20.33 4.95 20.66 9.9 21 15 C18.43923903 15.67404284 15.87673417 16.339414 13.3125 17 C12.2306543 17.28617187 12.2306543 17.28617187 11.12695312 17.578125 C10.42119141 17.75859375 9.71542969 17.9390625 8.98828125 18.125 C8.34415283 18.29257812 7.70002441 18.46015625 7.03637695 18.6328125 C5 19 5 19 0 19 C0 12.73 0 6.46 0 0 Z "
          fill="#EBEBEB" transform="translate(180,280)"/>
    <path d="M0 0 C6.6 0 13.2 0 20 0 C20 4.62 20 9.24 20 14 C17.41958904 15.00816056 14.83613056 16.0067111 12.25 17 C11.15558594 17.42925781 11.15558594 17.42925781 10.0390625 17.8671875 C9.33007812 18.13789062 8.62109375 18.40859375 7.890625 18.6875 C7.24125977 18.93886719 6.59189453 19.19023438 5.92285156 19.44921875 C4 20 4 20 0 20 C0 13.4 0 6.8 0 0 Z "
          fill="#FCFCFC" transform="translate(60,100)"/>
    <path d="M0 0 C13.75 -0.125 13.75 -0.125 16 1 C18.27325278 7.16023437 18.18227969 13.52907103 18 20 C12.06 20 6.12 20 0 20 C0 13.4 0 6.8 0 0 Z "
          fill="#FBFBFB" transform="translate(280,120)"/>
    <path d="M0 0 C7.54985606 -0.28670339 12.97354216 0.235492 20 3 C20 7.95 20 12.9 20 18 C13.4 18 6.8 18 0 18 C0 12.06 0 6.12 0 0 Z "
          fill="#FCFCFC" transform="translate(180,22)"/>
    <path d="M0 0 C5.94 0 11.88 0 18 0 C18 6.6 18 13.2 18 20 C13.05 20 8.1 20 3 20 C0.05348353 12.63370881 0 8.21176187 0 0 Z "
          fill="#FCFCFC" transform="translate(22,180)"/>
    <path d="M0 0 C6.6 0 13.2 0 20 0 C20 6.27 20 12.54 20 19 C12.46827656 18.5696158 6.90039813 17.0558906 0 14 C0 9.38 0 4.76 0 0 Z "
          fill="#FDFDFD" transform="translate(120,280)"/>
    <path d="M0 0 C6.6 0 13.2 0 20 0 C20 5.28 20 10.56 20 16 C13.4 16 6.8 16 0 16 C0 10.72 0 5.44 0 0 Z " fill="#FDFDFD"
          transform="translate(240,240)"/>
    <path d="M0 0 C6.6 0 13.2 0 20 0 C20 3.63 20 7.26 20 11 C20.66 11.33 21.32 11.66 22 12 C18.89878289 13.17461555 15.79357759 14.33830456 12.6875 15.5 C11.36588867 16.00080078 11.36588867 16.00080078 10.01757812 16.51171875 C9.17001953 16.82753906 8.32246094 17.14335938 7.44921875 17.46875 C6.27879028 17.90864258 6.27879028 17.90864258 5.0847168 18.35742188 C3 19 3 19 0 19 C0 12.73 0 6.46 0 0 Z "
          fill="#EBEBEB" transform="translate(180,40)"/>
    <path d="M0 0 C-0.33 4.29 -0.66 8.58 -1 13 C-6.28 13 -11.56 13 -17 13 C-17 53.26 -17 93.52 -17 135 C-17.33 135 -17.66 135 -18 135 C-18 91.77 -18 48.54 -18 4 C-2 -1 -2 -1 0 0 Z "
          fill="#E3E3E3" transform="translate(81,127)"/>
    <path d="M0 0 C0.33 0 0.66 0 1 0 C1 40.26 1 80.52 1 122 C-9.85865724 111.14134276 -9.85865724 111.14134276 -10.15625 104.52734375 C-9.90452302 101.31432853 -9.54003801 98.17640541 -9 95 C-6.03 95 -3.06 95 0 95 C0 63.65 0 32.3 0 0 Z "
          fill="#D9D9D9" transform="translate(49,125)"/>
    <path d="M0 0 C5.61 0 11.22 0 17 0 C17 6.6 17 13.2 17 20 C13.04 20 9.08 20 5 20 C5 16.37 5 12.74 5 9 C3.35 9 1.7 9 0 9 C0 6.03 0 3.06 0 0 Z "
          fill="#FDFDFD" transform="translate(120,120)"/>
    <path d="M0 0 C5.61 0 11.22 0 17 0 C17 6.6 17 13.2 17 20 C13.04 20 9.08 20 5 20 C5 16.04 5 12.08 5 8 C3.35 8 1.7 8 0 8 C0 5.36 0 2.72 0 0 Z "
          fill="#FDFDFD" transform="translate(120,160)"/>
    <path d="M0 0 C4.62 0 9.24 0 14 0 C13.45623955 6.03817573 11.59691815 10.9640229 9.1875 16.5 C8.67219727 17.72396484 8.67219727 17.72396484 8.14648438 18.97265625 C6.0568723 23.85756554 3.72717014 28.44041667 1 33 C0.67 33 0.34 33 0 33 C0 22.11 0 11.22 0 0 Z "
          fill="#FCFCFC" transform="translate(280,200)"/>
    <path d="M0 0 C5.61 0 11.22 0 17 0 C17 6.6 17 13.2 17 20 C13.04 20 9.08 20 5 20 C5 15.71 5 11.42 5 7 C3.35 7 1.7 7 0 7 C0 4.69 0 2.38 0 0 Z "
          fill="#FDFDFD" transform="translate(120,200)"/>
    <path d="M0 0 C4.95 0 9.9 0 15 0 C15 10.23 15 20.46 15 31 C14.34 31 13.68 31 13 31 C7.62564928 20.85141217 3.38019491 10.98563345 0 0 Z "
          fill="#EBEBEB" transform="translate(25,200)"/>
    <path d="M0 0 C4.29 0 8.58 0 13 0 C13 5.28 13 10.56 13 16 C13.99 16 14.98 16 16 16 C16 17.32 16 18.64 16 20 C10.72 20 5.44 20 0 20 C0 13.4 0 6.8 0 0 Z "
          fill="#FDFDFD" transform="translate(64,220)"/>
    <path d="M0 0 C12.21 0 24.42 0 37 0 C32.16577762 3.22281492 26.6093175 4.86423472 21.17602539 6.85058594 C19.07083346 7.62194655 16.9699646 8.40433368 14.86914062 9.1875 C13.52889501 9.68036561 12.18840792 10.17257519 10.84765625 10.6640625 C9.63086182 11.11217285 8.41406738 11.5602832 7.16040039 12.02197266 C4 13 4 13 0 13 C0 8.71 0 4.42 0 0 Z "
          fill="#FBFBFB" transform="translate(140,60)"/>
    <path d="M0 0 C5.61 0 11.22 0 17 0 C17 6.6 17 13.2 17 20 C13.04 20 9.08 20 5 20 C5 15.05 5 10.1 5 5 C3.35 5 1.7 5 0 5 C0 3.35 0 1.7 0 0 Z "
          fill="#FDFDFD" transform="translate(120,240)"/>
    <path d="M0 0 C6.6 0 13.2 0 20 0 C20 3.96 20 7.92 20 12 C13.15425342 13.38648032 6.97677159 14.22874661 0 14 C0 9.38 0 4.76 0 0 Z "
          fill="#FBFBFB" transform="translate(80,200)"/>
    <path d="M0 0 C0.33 0 0.66 0 1 0 C1 9.24 1 18.48 1 28 C-4.61 28 -10.22 28 -16 28 C-14.88509473 23.5403789 -12.82372916 20.5195763 -10.25 16.8125 C-6.52818205 11.35440824 -3.02847135 5.88161016 0 0 Z "
          fill="#F9F9F9" transform="translate(299,232)"/>
    <path d="M0 0 C6.6 0 13.2 0 20 0 C20 5.61 20 11.22 20 17 C15 15 15 15 12.8125 12.875 C8.54867789 10.03245193 5.05634095 10.73032848 0 11 C0 7.37 0 3.74 0 0 Z "
          fill="#FAFAFA" transform="translate(200,40)"/>
    <path d="M0 0 C0.66 0.33 1.32 0.66 2 1 C1.34 1.66 0.68 2.32 0 3 C-0.46486718 6.12196336 -0.46486718 6.12196336 -0.625 9.625 C-0.74875 11.72875 -0.8725 13.8325 -1 16 C-7.6 16 -14.2 16 -21 16 C-21 13.69 -21 11.38 -21 9 C-23.31 9.33 -25.62 9.66 -28 10 C-25.30086457 8.20057638 -23.55261516 7.4414889 -20.5078125 6.5625 C-19.63769531 6.30726563 -18.76757812 6.05203125 -17.87109375 5.7890625 C-16.96488281 5.52867187 -16.05867187 5.26828125 -15.125 5 C-13.33531088 4.48132396 -11.54622761 3.96055198 -9.7578125 3.4375 C-8.92411133 3.19386719 -8.09041016 2.95023437 -7.23144531 2.69921875 C-4.84186439 1.9872431 -4.84186439 1.9872431 -1.9921875 0.75 C-1.00605469 0.37875 -1.00605469 0.37875 0 0 Z "
          fill="#E4E4E4" transform="translate(221,304)"/>
    <path d="M0 0 C15.51 0 31.02 0 47 0 C45.35 1.65 43.7 3.3 42 5 C41.34 5 40.68 5 40 5 C40 3.68 40 2.36 40 1 C33.4 1 26.8 1 20 1 C20 3.97 20 6.94 20 10 C13.4 10 6.8 10 0 10 C0 6.7 0 3.4 0 0 Z "
          fill="#EDEDED" transform="translate(200,270)"/>
    <path d="M0 0 C0.93423645 3.01031744 1.04449911 3.86650268 0 7 C2.31 7 4.62 7 7 7 C7 13.6 7 20.2 7 27 C2.05 27.33 -2.9 27.66 -8 28 C-5.48961281 18.61907945 -2.76116178 9.30937154 0 0 Z "
          fill="#E4E4E4" transform="translate(313,193)"/>
    <path d="M0 0 C3.96 0 7.92 0 12 0 C12 6.6 12 13.2 12 20 C8.04 20 4.08 20 0 20 C0 13.4 0 6.8 0 0 Z " fill="#FEFEFE"
          transform="translate(64,180)"/>
    <path d="M0 0 C6.6 0 13.2 0 20 0 C20 2.31 20 4.62 20 7 C21.65 7 23.3 7 25 7 C25 14.92 25 22.84 25 31 C24.67 31 24.34 31 24 31 C24 23.41 24 15.82 24 8 C23.01 8.495 23.01 8.495 22 9 C19.41584722 9.39689342 16.84423519 9.74868123 14.25 10.0625 C13.54617187 10.15337891 12.84234375 10.24425781 12.1171875 10.33789062 C8.05108851 10.84048464 4.1061819 11.09684391 0 11 C0 7.37 0 3.74 0 0 Z "
          fill="#DFDFDF" transform="translate(100,200)"/>
    <path d="M0 0 C6.6 0 13.2 0 20 0 C20 4.62 20 9.24 20 14 C12.84831485 13.50104522 6.58708719 10.68436185 0 8 C0 5.36 0 2.72 0 0 Z "
          fill="#F7F7F7" transform="translate(200,0)"/>
    <path d="M0 0 C0 4.62 0 9.24 0 14 C-6.27 14 -12.54 14 -19 14 C-19 11.03 -19 8.06 -19 5 C-12.77737158 2.14796197 -6.94667263 0 0 0 Z "
          fill="#F8F8F8" transform="translate(199,66)"/>
    <path d="M0 0 C2.64 0 5.28 0 8 0 C9.00816056 2.58041096 10.0067111 5.16386944 11 7.75 C11.28617188 8.47960937 11.57234375 9.20921875 11.8671875 9.9609375 C12.13789063 10.66992188 12.40859375 11.37890625 12.6875 12.109375 C12.93886719 12.75874023 13.19023437 13.40810547 13.44921875 14.07714844 C14 16 14 16 14 20 C9.38 20 4.76 20 0 20 C0 13.4 0 6.8 0 0 Z "
          fill="#F8F8F8" transform="translate(0,200)"/>
    <path d="M0 0 C6.6 0 13.2 0 20 0 C20 2.31 20 4.62 20 7 C20.66 7.33 21.32 7.66 22 8 C20.91460937 8.33773438 19.82921875 8.67546875 18.7109375 9.0234375 C17.26561539 9.47392751 15.82030343 9.92445007 14.375 10.375 C13.66214844 10.59671875 12.94929688 10.8184375 12.21484375 11.046875 C11.16103516 11.37558594 11.16103516 11.37558594 10.0859375 11.7109375 C9.1276001 12.00943604 9.1276001 12.00943604 8.14990234 12.31396484 C5.42490186 13.18351417 2.71358975 14.09547008 0 15 C0 10.05 0 5.1 0 0 Z "
          fill="#EAEAEA" transform="translate(100,0)"/>
    <path d="M0 0 C4.43494131 0.73915688 8.06063622 1.56845861 12.25 3 C13.28640625 3.350625 14.3228125 3.70125 15.390625 4.0625 C18 5 18 5 20 6 C20 8.64 20 11.28 20 14 C13.4 14 6.8 14 0 14 C0 9.38 0 4.76 0 0 Z "
          fill="#FBFBFB" transform="translate(100,306)"/>
    <path d="M0 0 C15.51 0 31.02 0 47 0 C47 0.33 47 0.66 47 1 C39.08 1 31.16 1 23 1 C23 3.97 23 6.94 23 10 C10.61493257 12.10565289 10.61493257 12.10565289 4.6875 8.0625 C3.43261067 7.07345796 2.19267592 6.06323823 1 5 C1.66 4.67 2.32 4.34 3 4 C3 3.01 3 2.02 3 1 C2.01 0.67 1.02 0.34 0 0 Z "
          fill="#DDDDDD" transform="translate(77,270)"/>
    <path d="M0 0 C4.62 0 9.24 0 14 0 C14 6.6 14 13.2 14 20 C11.36 20 8.72 20 6 20 C4.99422987 17.23113877 3.99519853 14.46015896 3 11.6875 C2.71382813 10.90181641 2.42765625 10.11613281 2.1328125 9.30664062 C1.86210937 8.54931641 1.59140625 7.79199219 1.3125 7.01171875 C1.06113281 6.31522217 0.80976563 5.61872559 0.55078125 4.90112305 C0 3 0 3 0 0 Z "
          fill="#FCFCFC" transform="translate(306,100)"/>
    <path d="M0 0 C6.6 0 13.2 0 20 0 C20 1.65 20 3.3 20 5 C17.83984375 6.87890625 17.83984375 6.87890625 14.9375 8.5625 C13.9371875 9.15289062 12.936875 9.74328125 11.90625 10.3515625 C10.9471875 10.89554687 9.988125 11.43953125 9 12 C8.2678125 12.44085938 7.535625 12.88171875 6.78125 13.3359375 C2.32225177 16 2.32225177 16 0 16 C0 10.72 0 5.44 0 0 Z "
          fill="#FCFCFC" transform="translate(220,271)"/>
    <path d="M0 0 C6.6 0 13.2 0 20 0 C20 2.97 20 5.94 20 9 C13.4 9 6.8 9 0 9 C0 6.03 0 3.06 0 0 Z " fill="#FEFEFE"
          transform="translate(140,271)"/>
    <path d="M0 0 C6.6 0 13.2 0 20 0 C20 2.97 20 5.94 20 9 C13.4 9 6.8 9 0 9 C0 6.03 0 3.06 0 0 Z " fill="#FDFDFD"
          transform="translate(100,271)"/>
    <path d="M0 0 C4.95 0 9.9 0 15 0 C12.56336065 4.8732787 9.39416381 8.76461024 6 13 C5.505 13.63292969 5.01 14.26585937 4.5 14.91796875 C3.38194573 16.31886413 2.19713449 17.66605014 1 19 C0.34 19 -0.32 19 -1 19 C-1 18.34 -1 17.68 -1 17 C-7.6 17 -14.2 17 -21 17 C-21 16.67 -21 16.34 -21 16 C-14.07 16 -7.14 16 0 16 C0 10.72 0 5.44 0 0 Z "
          fill="#E3E3E3" transform="translate(260,240)"/>
    <path d="M0 0 C2.97 0 5.94 0 9 0 C9 6.6 9 13.2 9 20 C6.03 20 3.06 20 0 20 C0 13.4 0 6.8 0 0 Z " fill="#FDFDFD"
          transform="translate(40,200)"/>
    <path d="M0 0 C2.97 0 5.94 0 9 0 C9 6.6 9 13.2 9 20 C6.03 20 3.06 20 0 20 C0 13.4 0 6.8 0 0 Z " fill="#ECECEC"
          transform="translate(40,180)"/>
    <path d="M0 0 C2.97 0 5.94 0 9 0 C9 6.6 9 13.2 9 20 C6.03 20 3.06 20 0 20 C0 13.4 0 6.8 0 0 Z " fill="#FDFDFD"
          transform="translate(40,160)"/>
    <path d="M0 0 C2.97 0 5.94 0 9 0 C9 6.6 9 13.2 9 20 C6.03 20 3.06 20 0 20 C0 13.4 0 6.8 0 0 Z " fill="#ECECEC"
          transform="translate(40,140)"/>
    <path d="M0 0 C6.6 0 13.2 0 20 0 C20 1.65 20 3.3 20 5 C21.65 5 23.3 5 25 5 C25 13.25 25 21.5 25 30 C24.67 30 24.34 30 24 30 C24 22.41 24 14.82 24 7 C16.08 7 8.16 7 0 7 C0 4.69 0 2.38 0 0 Z "
          fill="#D4D4D4" transform="translate(100,240)"/>
    <path d="M0 0 C6.60247998 5.56679684 12.43320316 11.39752002 18 18 C12.06 18 6.12 18 0 18 C0 12.06 0 6.12 0 0 Z "
          fill="#E5E5E5" transform="translate(40,262)"/>
    <path d="M0 0 C5.94 0 11.88 0 18 0 C18 5.94 18 11.88 18 18 C11.39752002 12.43320316 5.56679684 6.60247998 0 0 Z "
          fill="#E5E5E5" transform="translate(262,40)"/>
    <path d="M0 0 C0.33 0 0.66 0 1 0 C1 6.27 1 12.54 1 19 C-12.625 20 -12.625 20 -16 20 C-5.07317073 5.13356562 -5.07317073 5.13356562 0 0 Z "
          fill="#E8E8E8" transform="translate(59,61)"/>
    <path d="M0 0 C5.61 0 11.22 0 17 0 C15.21748368 3.56503264 14.64449242 4.55036291 11.75 6.8125 C8.48176717 9.48030593 5.87286042 12.37462599 3.26171875 15.6796875 C2.63716797 16.33324219 2.63716797 16.33324219 2 17 C1.34 17 0.68 17 0 17 C0 11.39 0 5.78 0 0 Z "
          fill="#F6F6F6" transform="translate(40,40)"/>
    <path d="M0 0 C0 5.28 0 10.56 0 16 C-6.6 16.33 -13.2 16.66 -20 17 C-16.6903563 13.6903563 -13.40912204 10.49785012 -9.9375 7.375 C-9.10089844 6.61960937 -8.26429687 5.86421875 -7.40234375 5.0859375 C-1.54494382 0 -1.54494382 0 0 0 Z "
          fill="#E9E9E9" transform="translate(80,44)"/>
    <path d="M0 0 C0 2.64 0 5.28 0 8 C-14.73786408 14 -14.73786408 14 -20 14 C-20 11.36 -20 8.72 -20 6 C-16.85489779 4.99769027 -13.70880088 3.99854009 -10.5625 3 C-9.66466797 2.71382813 -8.76683594 2.42765625 -7.84179688 2.1328125 C-6.98779297 1.86210938 -6.13378906 1.59140625 -5.25390625 1.3125 C-4.06776733 0.93544922 -4.06776733 0.93544922 -2.85766602 0.55078125 C-1 0 -1 0 0 0 Z "
          fill="#FAFAFA" transform="translate(140,85)"/>
    <path d="M0 0 C4.04610808 2.42766485 6.2300147 3.99768819 9.25 7.375 C10.27867187 8.50035156 10.27867187 8.50035156 11.328125 9.6484375 C13 12 13 12 14 17 C9.38 17 4.76 17 0 17 C0 11.39 0 5.78 0 0 Z "
          fill="#F9F9F9" transform="translate(260,63)"/>
    <path d="M0 0 C3.94012501 0.98503125 5.42253854 1.85158476 8.5 4.3125 C9.2528125 4.90675781 10.005625 5.50101563 10.78125 6.11328125 C12.98417771 7.98654548 15.05637574 9.85759598 17 12 C17 12.66 17 13.32 17 14 C11.39 14 5.78 14 0 14 C0 9.38 0 4.76 0 0 Z "
          fill="#FAFAFA" transform="translate(240,46)"/>
    <path d="M0 0 C6.6 0 13.2 0 20 0 C20 2.31 20 4.62 20 7 C13.29980211 7.70132913 6.73742646 8.11044961 0 8 C0 5.36 0 2.72 0 0 Z "
          fill="#FDFDFD" transform="translate(80,240)"/>
    <path d="M0 0 C0 5.28 0 10.56 0 16 C-5.28 16 -10.56 16 -16 16 C-15.0925 14.96875 -14.185 13.9375 -13.25 12.875 C-11.23868062 10.54808718 -9.59653769 8.3642412 -7.9375 5.75 C-6.09949792 3.14122285 -3.54163704 0 0 0 Z "
          fill="#FAFAFA" transform="translate(280,264)"/>
    <path d="M0 0 C0 0.33 0 0.66 0 1 C-1.98 1 -3.96 1 -6 1 C-6 2.98 -6 4.96 -6 7 C-12.6 7 -19.2 7 -26 7 C-26 5.68 -26 4.36 -26 3 C-26.99 2.67 -27.98 2.34 -29 2 C-25.66729126 1.66022275 -22.33375214 1.32936937 -19 1 C-17.59814453 0.85691406 -17.59814453 0.85691406 -16.16796875 0.7109375 C-10.74681677 0.18019535 -5.44677829 -0.1027694 0 0 Z "
          fill="#E4E4E4" transform="translate(106,233)"/>
    <path d="M0 0 C6.6 0 13.2 0 20 0 C20 2.64 20 5.28 20 8 C16.18259965 7.5126723 12.49133938 6.90331437 8.75 6 C3.54713834 4.79588348 -1.68211325 4.37771906 -7 4 C-7 3.67 -7 3.34 -7 3 C-4.69 3 -2.38 3 0 3 C0 2.01 0 1.02 0 0 Z "
          fill="#E4E4E4" transform="translate(180,0)"/>
    <path d="M0 0 C0.33 0 0.66 0 1 0 C1.12117187 0.9178125 1.24234375 1.835625 1.3671875 2.78125 C2.41714962 10.7653101 2.41714962 10.7653101 4.125 18.625 C5 22 5 22 5 26 C2.36 26 -0.28 26 -3 26 C-3 19.4 -3 12.8 -3 6 C-2.01 6 -1.02 6 0 6 C0 4.02 0 2.04 0 0 Z "
          fill="#E5E5E5" transform="translate(3,174)"/>
    <path d="M0 0 C4.29 0 8.58 0 13 0 C13 3.63 13 7.26 13 11 C13.99 11 14.98 11 16 11 C16 11.99 16 12.98 16 14 C11.11085252 13.55309438 8.73212063 11.39914757 5.1875 8.125 C3.72376953 6.79855469 3.72376953 6.79855469 2.23046875 5.4453125 C0 3 0 3 0 0 Z "
          fill="#F7F7F7" transform="translate(64,260)"/>
    <path d="M0 0 C2.31 0 4.62 0 7 0 C7.48452463 6.94485303 5.69287491 13.2990368 4 20 C2.68 20 1.36 20 0 20 C0 13.4 0 6.8 0 0 Z "
          fill="#F8F8F8" transform="translate(0,120)"/>
    <path d="M0 0 C6.6 0 13.2 0 20 0 C20 1.32 20 2.64 20 4 C6.3667426 7.44419134 6.3667426 7.44419134 0 7 C0 4.69 0 2.38 0 0 Z "
          fill="#FAFAFA" transform="translate(120,0)"/>
    <path d="M0 0 C0 2.31 0 4.62 0 7 C-6.6 7 -13.2 7 -20 7 C-20 5.68 -20 4.36 -20 3 C-13.37305556 1.19265152 -6.8883629 0 0 0 Z "
          fill="#FBFBFB" transform="translate(200,313)"/>
    <path d="M0 0 C1.32 0 2.64 0 4 0 C4 6.6 4 13.2 4 20 C1.69 20 -0.62 20 -3 20 C-2.69055299 17.41626766 -2.37756043 14.83304867 -2.0625 12.25 C-1.97548828 11.52039063 -1.88847656 10.79078125 -1.79882812 10.0390625 C-1.37972591 6.62415558 -0.882726 3.32396457 0 0 Z "
          fill="#FBFBFB" transform="translate(316,180)"/>
    <path d="M0 0 C3.96 0 7.92 0 12 0 C12 6.6 12 13.2 12 20 C11.01 20 10.02 20 9 20 C9 15.05 9 10.1 9 5 C6.525 4.01 6.525 4.01 4 3 C2.68 2.01 1.36 1.02 0 0 Z "
          fill="#E5E5E5" transform="translate(168,100)"/>
    <path d="M0 0 C0.99 0 1.98 0 3 0 C3 6.6 3 13.2 3 20 C1.68 20 0.36 20 -1 20 C-1.11044961 13.26257354 -0.70132913 6.70019789 0 0 Z "
          fill="#E3E3E3" transform="translate(317,160)"/>
    <path d="M0 0 C0 1.32 0 2.64 0 4 C-6.6 4 -13.2 4 -20 4 C-20 3.01 -20 2.02 -20 1 C-13.31184516 0.37577221 -6.71884955 -0.12920865 0 0 Z "
          fill="#E5E5E5" transform="translate(180,316)"/>
    <path d="M0 0 C5.61 0 11.22 0 17 0 C16 2 16 2 13.41796875 3.0703125 C12.35191406 3.41835937 11.28585938 3.76640625 10.1875 4.125 C9.12917969 4.47820312 8.07085937 4.83140625 6.98046875 5.1953125 C4 6 4 6 0 6 C0 4.02 0 2.04 0 0 Z "
          fill="#F8F8F8" transform="translate(100,100)"/>
    <path d="M0 0 C0 1.65 0 3.3 0 5 C-5.28 5 -10.56 5 -16 5 C-15.67 4.01 -15.34 3.02 -15 2 C-9.83595969 0.30833162 -5.4035577 -0.22514824 0 0 Z "
          fill="#EEEEEE" transform="translate(120,155)"/>
    <path d="M0 0 C15.51 0 31.02 0 47 0 C45.35 1.65 43.7 3.3 42 5 C41.34 5 40.68 5 40 5 C40 3.68 40 2.36 40 1 C26.8 1 13.6 1 0 1 C0 0.67 0 0.34 0 0 Z "
          fill="#D9D9D9" transform="translate(200,270)"/>
    <path d="M0 0 C5.61 0 11.22 0 17 0 C13.74551903 2.16965398 10.4746415 3.36143262 6.8125 4.625 C6.15830078 4.85445313 5.50410156 5.08390625 4.83007812 5.3203125 C3.22135865 5.88395144 1.61085023 6.44247984 0 7 C0 4.69 0 2.38 0 0 Z "
          fill="#E6E6E6" transform="translate(160,60)"/>
    <path d="M0 0 C6.6 0 13.2 0 20 0 C20 0.99 20 1.98 20 3 C13.4 3 6.8 3 0 3 C0 2.01 0 1.02 0 0 Z " fill="#FBFBFB"
          transform="translate(140,317)"/>
    <path d="M0 0 C0.99 0 1.98 0 3 0 C3 6.6 3 13.2 3 20 C2.01 20 1.02 20 0 20 C0 13.4 0 6.8 0 0 Z " fill="#FAFAFA"
          transform="translate(177,200)"/>
    <path d="M0 0 C0.99 0 1.98 0 3 0 C3 6.6 3 13.2 3 20 C2.01 20 1.02 20 0 20 C0 13.4 0 6.8 0 0 Z " fill="#FAFAFA"
          transform="translate(177,160)"/>
    <path d="M0 0 C0.99 0 1.98 0 3 0 C3 6.6 3 13.2 3 20 C2.01 20 1.02 20 0 20 C0 13.4 0 6.8 0 0 Z " fill="#FBFBFB"
          transform="translate(0,160)"/>
    <path d="M0 0 C0.99 0 1.98 0 3 0 C3 6.6 3 13.2 3 20 C2.01 20 1.02 20 0 20 C0 13.4 0 6.8 0 0 Z " fill="#FBFBFB"
          transform="translate(317,140)"/>
    <path d="M0 0 C0.99 0 1.98 0 3 0 C3 6.6 3 13.2 3 20 C2.01 20 1.02 20 0 20 C0 13.4 0 6.8 0 0 Z " fill="#FAFAFA"
          transform="translate(177,120)"/>
    <path d="M0 0 C0.33 0 0.66 0 1 0 C1 4.29 1 8.58 1 13 C-1.31 13 -3.62 13 -6 13 C-4.58707905 8.1725201 -2.57025846 4.2837641 0 0 Z "
          fill="#DEDEDE" transform="translate(39,87)"/>
    <path d="M0 0 C0 2.31 0 4.62 0 7 C-4.29 7 -8.58 7 -13 7 C-4.25 0 -4.25 0 0 0 Z " fill="#DEDEDE"
          transform="translate(100,33)"/>
    <path d="M0 0 C4.29 0 8.58 0 13 0 C3.66666667 7 3.66666667 7 0 7 C0 4.69 0 2.38 0 0 Z " fill="#E2E2E2"
          transform="translate(220,280)"/>
    <path d="M0 0 C2.31 0 4.62 0 7 0 C5.58707905 4.8274799 3.57025846 8.7162359 1 13 C0.67 13 0.34 13 0 13 C0 8.71 0 4.42 0 0 Z "
          fill="#E2E2E2" transform="translate(280,220)"/>
    <path d="M0 0 C3.63 0 7.26 0 11 0 C11 1.98 11 3.96 11 6 C6.64477147 5.49357808 3.55760365 4.61588503 0 2 C0 1.34 0 0.68 0 0 Z "
          fill="#F0F0F0" transform="translate(89,280)"/>
    <path d="M0 0 C1.98 0 3.96 0 6 0 C6 3.63 6 7.26 6 11 C5.34 11 4.68 11 4 11 C0 4.5 0 4.5 0 0 Z " fill="#F5F5F5"
          transform="translate(34,220)"/>
    <path d="M0 0 C0.66 0.33 1.32 0.66 2 1 C-4.93 7.93 -11.86 14.86 -19 22 C-19.66 21.67 -20.32 21.34 -21 21 C-20.20335937 20.22076172 -20.20335937 20.22076172 -19.390625 19.42578125 C-14.99731263 15.11075057 -14.99731263 15.11075057 -11 10.4375 C-8.05641336 6.85000378 -4.52494014 4.00063555 -1 1 C-0.67 0.67 -0.34 0.34 0 0 Z "
          fill="#1F1F1F" transform="translate(59,39)"/>
    <path d="M0 0 C4.35522853 0.50642192 7.44239635 1.38411497 11 4 C11 4.66 11 5.32 11 6 C7.37 6 3.74 6 0 6 C0 4.02 0 2.04 0 0 Z "
          fill="#F5F5F5" transform="translate(220,34)"/>
    <path d="M0 0 C6.6 0 13.2 0 20 0 C20 0.99 20 1.98 20 3 C13.4 2.67 6.8 2.34 0 2 C0 1.34 0 0.68 0 0 Z " fill="#FEFEFE"
          transform="translate(160,0)"/>
    <path d="M0 0 C0 1.65 0 3.3 0 5 C-5.28 5 -10.56 5 -16 5 C-13.0876333 3.54381665 -10.49045278 2.39781667 -7.4375 1.375 C-6.29087891 0.98441406 -6.29087891 0.98441406 -5.12109375 0.5859375 C-3 0 -3 0 0 0 Z "
          fill="#FDFDFD" transform="translate(120,115)"/>
    <path d="M0 0 C-0.66 0 -1.32 0 -2 0 C-2 0.99 -2 1.98 -2 3 C-7.61 3 -13.22 3 -19 3 C-19 2.67 -19 2.34 -19 2 C-16.58525383 1.46839543 -14.16891893 0.94945234 -11.75 0.4375 C-11.06808594 0.28603516 -10.38617188 0.13457031 -9.68359375 -0.02148438 C-6.18230962 -0.75233495 -3.39701827 -1.32203546 0 0 Z "
          fill="#D7D7D7" transform="translate(102,197)"/>
    <path d="M0 0 C0.66 0 1.32 0 2 0 C1.67 0.99 1.34 1.98 1 3 C0.85507877 4.40664926 0.75371069 5.8181133 0.68359375 7.23046875 C0.64169922 8.03291016 0.59980469 8.83535156 0.55664062 9.66210938 C0.51732422 10.49548828 0.47800781 11.32886719 0.4375 12.1875 C0.39431641 13.03248047 0.35113281 13.87746094 0.30664062 14.74804688 C0.20068482 16.83184433 0.0998498 18.91590103 0 21 C0.66 21.33 1.32 21.66 2 22 C1.01 22 0.02 22 -1 22 C-1.02887814 18.52085059 -1.04675687 15.04173169 -1.0625 11.5625 C-1.07087891 10.56927734 -1.07925781 9.57605469 -1.08789062 8.55273438 C-1.09111328 7.60849609 -1.09433594 6.66425781 -1.09765625 5.69140625 C-1.10289307 4.81685791 -1.10812988 3.94230957 -1.11352539 3.04125977 C-1 1 -1 1 0 0 Z "
          fill="#464646" transform="translate(78,143)"/>
    <path d="M0 0 C0.66 0.33 1.32 0.66 2 1 C0.59290434 2.48827426 -0.82606201 3.96533185 -2.25 5.4375 C-3.43335937 6.67306641 -3.43335937 6.67306641 -4.640625 7.93359375 C-6.90734717 9.91885207 -8.0671937 10.6300359 -11 11 C-7.33333333 7.33333333 -3.66666667 3.66666667 0 0 Z "
          fill="#C7C7C7" transform="translate(71,50)"/>
    <path d="M0 0 C0.66 0.33 1.32 0.66 2 1 C1.67 2.32 1.34 3.64 1 5 C-1.64 5 -4.28 5 -7 5 C-2.25 1.125 -2.25 1.125 0 0 Z "
          fill="#D8D8D8" transform="translate(239,295)"/>
    <path d="M0 0 C0.33 0 0.66 0 1 0 C1 2.64 1 5.28 1 8 C-0.65 8.33 -2.3 8.66 -4 9 C-2.80100302 5.9168649 -1.52299523 2.93720508 0 0 Z "
          fill="#D8D8D8" transform="translate(299,232)"/>
    <path d="M0 0 C1.65 0 3.3 0 5 0 C3.68 2.64 2.36 5.28 1 8 C0.67 8 0.34 8 0 8 C0 5.36 0 2.72 0 0 Z " fill="#DCDCDC"
          transform="translate(20,80)"/>
    <path d="M0 0 C2.64 0 5.28 0 8 0 C5.44008376 2.01136276 2.95409701 3.62845496 0 5 C0 3.35 0 1.7 0 0 Z "
          fill="#DCDCDC" transform="translate(80,20)"/>
    <path d="M0 0 C0.33 0.99 0.66 1.98 1 3 C-0.98 4.98 -2.96 6.96 -5 9 C-5.66 8.67 -6.32 8.34 -7 8 C-4.69 5.36 -2.38 2.72 0 0 Z "
          fill="#C7C7C7" transform="translate(59,61)"/>
    <path d="M0 0 C1.98 0.66 3.96 1.32 6 2 C6 2.66 6 3.32 6 4 C4.02 4 2.04 4 0 4 C0 2.68 0 1.36 0 0 Z " fill="#F3F3F3"
          transform="translate(80,296)"/>
    <path d="M0 0 C1.32 0 2.64 0 4 0 C4 1.98 4 3.96 4 6 C3.34 6 2.68 6 2 6 C1.34 4.02 0.68 2.04 0 0 Z " fill="#F3F3F3"
          transform="translate(296,80)"/>
</svg>
